# xmcd
#
# Track frame offsets:
#	150
#	14593
#	27991
#	44318
#	64739
#	82924
#	101519
#	119004
#	132674
#	151298
#	170286
#	182784
#	198240
#	208202
#	222611
#	235042
#	251369
#	269554
#	283224
#	300709
#	324390
#
# Disc length: 4331 seconds
#
# Revision: 1
# Processed by: cddbd v1.5.1PL0 Copyright (c) Steve Scherf et al.
# Submitted via: audiograbber 1.83.01
#
DISCID=3a10e915
DTITLE=Top Tunes - TT-145
DYEAR=1900
DGENRE=karaoke
TTITLE0=Byrd, Tracy - 10 Rounds With Jose Cuervo
TTITLE1=Chain, Micheal - Becky Takes Her Clothes Off
TTITLE2=Judd, Cleatus T. - Breath
TTITLE3=Stevens, Ray - Deer Slayer
TTITLE4=Judd, Cleatus T. - Don't Mess With America
TTITLE5=Judd, Cleatus T. - Goodbye Squirrel
TTITLE6=Judd, Cleatus T. - It's A Great Day To Be A Guy
TTITLE7=Judd, Cleatus T. - Indian In-Laws
TTITLE8=Judd, Cleatus T. - Let's Shoot Dove
TTITLE9=Judd, Cleatus T. - Man Of Constant Borrow
TTITLE10=Judd, Cleatus T. - More Beaver
TTITLE11=Stevens, Ray - Osama Yo Mama
TTITLE12=Powell, Collin - Taliban Song
TTITLE13=Stevens, Ray - The Streak
TTITLE14=Judd, Cleatus T. - Tree's On Fire
TTITLE15=Judd, Cleatus T. - Breath(vocals)
TTITLE16=Judd, Cleatus T. - Don't Mess With America(vocals)
TTITLE17=Judd, Cleatus T. - Indian In-Laws(vocals)
TTITLE18=Judd, Cleatus T. - It's A Great Day To Be A Guy(vocals)
TTITLE19=Judd, Cleatus T. - Tree's On Fire(vocals)
TTITLE20=Data - Data Track
EXTD=
EXTT0=
EXTT1=
EXTT2=
EXTT3=
EXTT4=
EXTT5=
EXTT6=
EXTT7=
EXTT8=
EXTT9=
EXTT10=
EXTT11=
EXTT12=
EXTT13=
EXTT14=
EXTT15=
EXTT16=
EXTT17=
EXTT18=
EXTT19=
EXTT20=
PLAYORDER=
